<svg xmlns="http://www.w3.org/2000/svg" viewBox="0 0 341.7 84.7"><g fill="#fff" stroke="#000" stroke-miterlimit="10" data-name="Layer 2"><path d="M165.4 67.9c5.8-6.2 21.9-35.9 8.4-42-21.3-9.5-55.4 31.9-65.4 45 4.3-5.7 2.7-12.7-3.1-15.7s-12.7.2-18.3 3.4a21.8 21.8 0 0 0-9.8 13.6c5.6-2.6-7.3-22.6-35-10.1C26.9 69.1 25.3 80.5.1 84h162"/><path d="M147.9 84h142.3l51 .2C342.5 83 300.5 81 303 75s8.4-14.9 3.7-20.1c-6.2-6.8-20.6-6.9-30-2.4s-14.8 12.2-19.9 19.6c6.8-12.9 13.8-26.4 12.5-40.3S256.3 3.6 237.9.9c-21.8-3.1-41.3 10.8-52 25.3S164.6 51 151.2 67.9"/></g></svg>